# Exported from Wings 3D 2.2.5
mtllib TileSide.mtl
o Tile_copy9
#8 vertices, 6 faces
v 2.50000000 5.0000000e-2 -2.50000000
v 2.50000000 5.0000000e-2 2.50000000
v 2.40000000 5.0000000e-2 -2.50000000
v 2.40000000 5.0000000e-2 2.50000000
v 2.50000000 5.05000000 -2.50000000
v 2.50000000 5.05000000 2.50000000
v 2.40000000 5.05000000 -2.50000000
v 2.40000000 5.05000000 2.50000000
vn 1.00000000 0.0000000e+0 0.0000000e+0
vn 0.0000000e+0 0.0000000e+0 -1.00000000
vn 0.0000000e+0 -1.00000000 0.0000000e+0
vn 1.00000000 0.0000000e+0 0.0000000e+0
vn 0.0000000e+0 0.0000000e+0 1.00000000
vn 0.0000000e+0 -1.00000000 0.0000000e+0
vn -1.00000000 0.0000000e+0 0.0000000e+0
vn 0.0000000e+0 0.0000000e+0 -1.00000000
vn 0.0000000e+0 -1.00000000 0.0000000e+0
vn -1.00000000 0.0000000e+0 0.0000000e+0
vn 0.0000000e+0 0.0000000e+0 1.00000000
vn 0.0000000e+0 -1.00000000 0.0000000e+0
vn 1.00000000 0.0000000e+0 0.0000000e+0
vn 0.0000000e+0 0.0000000e+0 -1.00000000
vn 0.0000000e+0 1.00000000 0.0000000e+0
vn 1.00000000 0.0000000e+0 0.0000000e+0
vn 0.0000000e+0 0.0000000e+0 1.00000000
vn 0.0000000e+0 1.00000000 0.0000000e+0
vn -1.00000000 0.0000000e+0 0.0000000e+0
vn 0.0000000e+0 0.0000000e+0 -1.00000000
vn 0.0000000e+0 1.00000000 0.0000000e+0
vn -1.00000000 0.0000000e+0 0.0000000e+0
vn 0.0000000e+0 0.0000000e+0 1.00000000
vn 0.0000000e+0 1.00000000 0.0000000e+0
g Tile_copy9_default
usemtl default
s 1
f 2//6 4//12 3//9 1//3
f 5//15 7//21 8//24 6//18
s 2
f 2//5 6//17 8//23 4//11
f 3//8 7//20 5//14 1//2
s 3
f 1//1 5//13 6//16 2//4
f 4//10 8//22 7//19 3//7
o Tile
#8 vertices, 6 faces
v -2.50000000 -5.0000000e-2 -2.50000000
v -2.50000000 -5.0000000e-2 2.50000000
v -2.50000000 5.0000000e-2 -2.50000000
v -2.50000000 5.0000000e-2 2.50000000
v 2.50000000 -5.0000000e-2 -2.50000000
v 2.50000000 -5.0000000e-2 2.50000000
v 2.50000000 5.0000000e-2 -2.50000000
v 2.50000000 5.0000000e-2 2.50000000
vn 0.0000000e+0 -1.00000000 0.0000000e+0
vn 0.0000000e+0 0.0000000e+0 -1.00000000
vn -1.00000000 0.0000000e+0 0.0000000e+0
vn 0.0000000e+0 -1.00000000 0.0000000e+0
vn 0.0000000e+0 0.0000000e+0 1.00000000
vn -1.00000000 0.0000000e+0 0.0000000e+0
vn 0.0000000e+0 1.00000000 0.0000000e+0
vn 0.0000000e+0 0.0000000e+0 -1.00000000
vn -1.00000000 0.0000000e+0 0.0000000e+0
vn 0.0000000e+0 1.00000000 0.0000000e+0
vn 0.0000000e+0 0.0000000e+0 1.00000000
vn -1.00000000 0.0000000e+0 0.0000000e+0
vn 0.0000000e+0 -1.00000000 0.0000000e+0
vn 0.0000000e+0 0.0000000e+0 -1.00000000
vn 1.00000000 0.0000000e+0 0.0000000e+0
vn 0.0000000e+0 -1.00000000 0.0000000e+0
vn 0.0000000e+0 0.0000000e+0 1.00000000
vn 1.00000000 0.0000000e+0 0.0000000e+0
vn 0.0000000e+0 1.00000000 0.0000000e+0
vn 0.0000000e+0 0.0000000e+0 -1.00000000
vn 1.00000000 0.0000000e+0 0.0000000e+0
vn 0.0000000e+0 1.00000000 0.0000000e+0
vn 0.0000000e+0 0.0000000e+0 1.00000000
vn 1.00000000 0.0000000e+0 0.0000000e+0
g Tile_default
usemtl default
s 1
f 10//30 12//36 11//33 9//27
f 13//39 15//45 16//48 14//42
s 2
f 10//29 14//41 16//47 12//35
f 11//32 15//44 13//38 9//26
s 3
f 9//25 13//37 14//40 10//28
f 12//34 16//46 15//43 11//31
