# MagicaVoxel @ Ephtracy

# group
o 

# material
mtllib TileSide.mtl
usemtl palette

# normals
vn -1 0 0
vn 1 0 0
vn 0 0 1
vn 0 0 -1
vn 0 -1 0
vn 0 1 0

# texcoords
vt 0.306641 0.5

# verts
v 0 2 0
v 0 2 -5
v 0 7 0
v 0 7 -5
v 0.1 2.1 0
v 0.1 2.1 -5
v 0.1 7 0
v 0.1 7 -5
v 5 2 0
v 5 2 -5
v 5 2.1 0
v 5 2.1 -5
v 0 2 0
v 0 7 0
v 0.1 2.1 0
v 0.1 7 0
v 5 2 0
v 5 2.1 0
v 0 2 -5
v 0 7 -5
v 0.1 2.1 -5
v 0.1 7 -5
v 5 2 -5
v 5 2.1 -5
v 0 2 0
v 5 2 0
v 0 2 -5
v 5 2 -5
v 0.1 2.1 0
v 5 2.1 0
v 0.1 2.1 -5
v 5 2.1 -5
v 0 7 0
v 0.1 7 0
v 0 7 -5
v 0.1 7 -5

# faces
f 3/1/1 2/1/1 1/1/1
f 4/1/1 2/1/1 3/1/1
f 5/1/2 6/1/2 7/1/2
f 7/1/2 6/1/2 8/1/2
f 9/1/2 10/1/2 11/1/2
f 11/1/2 10/1/2 12/1/2
f 15/1/3 14/1/3 13/1/3
f 16/1/3 14/1/3 15/1/3
f 17/1/3 15/1/3 13/1/3
f 18/1/3 15/1/3 17/1/3
f 19/1/4 20/1/4 21/1/4
f 21/1/4 20/1/4 22/1/4
f 19/1/4 21/1/4 23/1/4
f 23/1/4 21/1/4 24/1/4
f 27/1/5 26/1/5 25/1/5
f 28/1/5 26/1/5 27/1/5
f 29/1/6 30/1/6 31/1/6
f 31/1/6 30/1/6 32/1/6
f 33/1/6 34/1/6 35/1/6
f 35/1/6 34/1/6 36/1/6
