# Exported from Wings 3D 2.2.5
mtllib Tiles.mtl
o unnamed_object5
#12 vertices, 20 faces
v -2.50000000 -2.2204460e-16 2.50000000
v -2.50000000 -2.2204460e-16 -2.50000000
v -2.50000000 5.00000000 2.50000000
v -2.50000000 5.00000000 -2.50000000
v -2.40000000 0.10000000 2.50000000
v -2.40000000 0.10000000 -2.50000000
v -2.40000000 5.00000000 2.50000000
v -2.40000000 5.00000000 -2.50000000
v 2.50000000 -2.2204460e-16 2.50000000
v 2.50000000 -2.2204460e-16 -2.50000000
v 2.50000000 0.10000000 2.50000000
v 2.50000000 0.10000000 -2.50000000
vt 0.30664100 0.50000000
vn -1.00000000 0.0000000e+0 0.0000000e+0
vn 0.0000000e+0 0.0000000e+0 1.00000000
vn 0.0000000e+0 0.0000000e+0 1.00000000
vn 0.0000000e+0 -1.00000000 0.0000000e+0
vn -1.00000000 0.0000000e+0 0.0000000e+0
vn -1.00000000 0.0000000e+0 0.0000000e+0
vn 0.0000000e+0 0.0000000e+0 -1.00000000
vn 0.0000000e+0 0.0000000e+0 -1.00000000
vn 0.0000000e+0 -1.00000000 0.0000000e+0
vn 0.0000000e+0 -1.00000000 0.0000000e+0
vn -1.00000000 0.0000000e+0 0.0000000e+0
vn -1.00000000 0.0000000e+0 0.0000000e+0
vn 0.0000000e+0 0.0000000e+0 1.00000000
vn 0.0000000e+0 0.0000000e+0 1.00000000
vn 0.0000000e+0 1.00000000 0.0000000e+0
vn -1.00000000 0.0000000e+0 0.0000000e+0
vn 0.0000000e+0 0.0000000e+0 -1.00000000
vn 0.0000000e+0 0.0000000e+0 -1.00000000
vn 0.0000000e+0 1.00000000 0.0000000e+0
vn 0.0000000e+0 1.00000000 0.0000000e+0
vn 1.00000000 0.0000000e+0 0.0000000e+0
vn 0.0000000e+0 0.0000000e+0 1.00000000
vn 0.0000000e+0 0.0000000e+0 1.00000000
vn 0.0000000e+0 0.0000000e+0 1.00000000
vn 0.0000000e+0 0.0000000e+0 1.00000000
vn 0.0000000e+0 1.00000000 0.0000000e+0
vn 1.00000000 0.0000000e+0 0.0000000e+0
vn 1.00000000 0.0000000e+0 0.0000000e+0
vn 0.0000000e+0 0.0000000e+0 -1.00000000
vn 0.0000000e+0 0.0000000e+0 -1.00000000
vn 0.0000000e+0 0.0000000e+0 -1.00000000
vn 0.0000000e+0 0.0000000e+0 -1.00000000
vn 0.0000000e+0 1.00000000 0.0000000e+0
vn 0.0000000e+0 1.00000000 0.0000000e+0
vn 1.00000000 0.0000000e+0 0.0000000e+0
vn 1.00000000 0.0000000e+0 0.0000000e+0
vn 0.0000000e+0 0.0000000e+0 1.00000000
vn 0.0000000e+0 1.00000000 0.0000000e+0
vn 0.0000000e+0 1.00000000 0.0000000e+0
vn 1.00000000 0.0000000e+0 0.0000000e+0
vn 0.0000000e+0 0.0000000e+0 -1.00000000
vn 0.0000000e+0 1.00000000 0.0000000e+0
vn 1.00000000 0.0000000e+0 0.0000000e+0
vn 0.0000000e+0 0.0000000e+0 1.00000000
vn 0.0000000e+0 0.0000000e+0 1.00000000
vn 0.0000000e+0 -1.00000000 0.0000000e+0
vn 0.0000000e+0 -1.00000000 0.0000000e+0
vn 1.00000000 0.0000000e+0 0.0000000e+0
vn 1.00000000 0.0000000e+0 0.0000000e+0
vn 0.0000000e+0 0.0000000e+0 -1.00000000
vn 0.0000000e+0 0.0000000e+0 -1.00000000
vn 0.0000000e+0 -1.00000000 0.0000000e+0
vn 1.00000000 0.0000000e+0 0.0000000e+0
vn 1.00000000 0.0000000e+0 0.0000000e+0
vn 0.0000000e+0 0.0000000e+0 1.00000000
vn 0.0000000e+0 1.00000000 0.0000000e+0
vn 0.0000000e+0 1.00000000 0.0000000e+0
vn 1.00000000 0.0000000e+0 0.0000000e+0
vn 0.0000000e+0 0.0000000e+0 -1.00000000
vn 0.0000000e+0 1.00000000 0.0000000e+0
g unnamed_object5_palette5
usemtl palette5
s 1
f 3/1/15 7/1/38 4/1/19
f 7/1/39 8/1/42 4/1/20
f 10/1/48 11/1/53 9/1/43
f 10/1/49 12/1/58 11/1/54
s 2
f 1/1/1 3/1/11 2/1/5
f 3/1/12 4/1/16 2/1/6
f 6/1/27 7/1/35 5/1/21
f 6/1/28 8/1/40 7/1/36
s 3
f 2/1/9 9/1/46 1/1/4
f 2/1/10 10/1/52 9/1/47
f 5/1/26 11/1/56 6/1/33
f 11/1/57 12/1/60 6/1/34
s 4
f 1/1/2 5/1/22 3/1/13
f 1/1/3 9/1/44 5/1/24
f 4/1/17 6/1/29 2/1/7
f 4/1/18 8/1/41 6/1/30
f 5/1/23 7/1/37 3/1/14
f 6/1/31 10/1/50 2/1/8
f 6/1/32 12/1/59 10/1/51
f 9/1/45 11/1/55 5/1/25
o unnamed_object4
#16 vertices, 28 faces
v -2.50000000 -2.2204460e-16 2.50000000
v -2.50000000 -2.2204460e-16 -2.50000000
v -2.50000000 5.00000000 2.50000000
v -2.50000000 5.00000000 -2.50000000
v 2.40000000 0.10000000 2.50000000
v 2.40000000 0.10000000 -2.40000000
v 2.40000000 5.00000000 2.50000000
v 2.40000000 5.00000000 -2.40000000
v -2.40000000 0.10000000 2.50000000
v -2.40000000 0.10000000 -2.40000000
v -2.40000000 5.00000000 2.50000000
v -2.40000000 5.00000000 -2.40000000
v 2.50000000 -2.2204460e-16 2.50000000
v 2.50000000 -2.2204460e-16 -2.50000000
v 2.50000000 5.00000000 2.50000000
v 2.50000000 5.00000000 -2.50000000
vt 0.30664100 0.50000000
vn -1.00000000 0.0000000e+0 0.0000000e+0
vn 0.0000000e+0 0.0000000e+0 1.00000000
vn 0.0000000e+0 0.0000000e+0 1.00000000
vn 0.0000000e+0 0.0000000e+0 1.00000000
vn 0.0000000e+0 -1.00000000 0.0000000e+0
vn -1.00000000 0.0000000e+0 0.0000000e+0
vn -1.00000000 0.0000000e+0 0.0000000e+0
vn 0.0000000e+0 0.0000000e+0 -1.00000000
vn 0.0000000e+0 -1.00000000 0.0000000e+0
vn 0.0000000e+0 -1.00000000 0.0000000e+0
vn -1.00000000 0.0000000e+0 0.0000000e+0
vn -1.00000000 0.0000000e+0 0.0000000e+0
vn 0.0000000e+0 0.0000000e+0 1.00000000
vn 0.0000000e+0 0.0000000e+0 1.00000000
vn 0.0000000e+0 1.00000000 0.0000000e+0
vn 0.0000000e+0 1.00000000 0.0000000e+0
vn -1.00000000 0.0000000e+0 0.0000000e+0
vn 0.0000000e+0 0.0000000e+0 -1.00000000
vn 0.0000000e+0 0.0000000e+0 -1.00000000
vn 0.0000000e+0 1.00000000 -4.9343246e-15
vn 0.0000000e+0 1.00000000 -4.9343246e-15
vn 0.0000000e+0 1.00000000 -4.9343246e-15
vn -1.00000000 0.0000000e+0 0.0000000e+0
vn 0.0000000e+0 0.0000000e+0 1.00000000
vn 0.0000000e+0 0.0000000e+0 1.00000000
vn 0.0000000e+0 0.0000000e+0 1.00000000
vn 0.0000000e+0 1.00000000 0.0000000e+0
vn 0.0000000e+0 1.00000000 0.0000000e+0
vn -1.00000000 0.0000000e+0 0.0000000e+0
vn -1.00000000 0.0000000e+0 0.0000000e+0
vn 0.0000000e+0 0.0000000e+0 1.00000000
vn 0.0000000e+0 0.0000000e+0 1.00000000
vn 0.0000000e+0 1.00000000 0.0000000e+0
vn -1.00000000 0.0000000e+0 0.0000000e+0
vn -1.00000000 0.0000000e+0 0.0000000e+0
vn 0.0000000e+0 0.0000000e+0 1.00000000
vn 0.0000000e+0 0.0000000e+0 1.00000000
vn 0.0000000e+0 1.00000000 0.0000000e+0
vn -1.00000000 0.0000000e+0 0.0000000e+0
vn 0.0000000e+0 0.0000000e+0 1.00000000
vn 0.0000000e+0 1.00000000 -3.7007434e-15
vn 0.0000000e+0 1.00000000 -3.7007434e-15
vn 0.0000000e+0 1.00000000 -3.7007434e-15
vn 0.0000000e+0 1.00000000 -3.7007434e-15
vn 1.00000000 0.0000000e+0 0.0000000e+0
vn 0.0000000e+0 0.0000000e+0 1.00000000
vn 0.0000000e+0 0.0000000e+0 1.00000000
vn 0.0000000e+0 0.0000000e+0 1.00000000
vn 0.0000000e+0 1.00000000 0.0000000e+0
vn 1.00000000 0.0000000e+0 0.0000000e+0
vn 1.00000000 0.0000000e+0 0.0000000e+0
vn 0.0000000e+0 0.0000000e+0 1.00000000
vn 0.0000000e+0 1.00000000 0.0000000e+0
vn 0.0000000e+0 1.00000000 0.0000000e+0
vn 1.00000000 0.0000000e+0 0.0000000e+0
vn 1.00000000 0.0000000e+0 0.0000000e+0
vn 0.0000000e+0 0.0000000e+0 1.00000000
vn 0.0000000e+0 1.00000000 0.0000000e+0
vn 1.00000000 0.0000000e+0 0.0000000e+0
vn 0.0000000e+0 0.0000000e+0 1.00000000
vn 0.0000000e+0 0.0000000e+0 1.00000000
vn 0.0000000e+0 1.00000000 -4.9343246e-15
vn 0.0000000e+0 1.00000000 -4.9343246e-15
vn 0.0000000e+0 1.00000000 -4.9343246e-15
vn 1.00000000 0.0000000e+0 0.0000000e+0
vn 0.0000000e+0 0.0000000e+0 1.00000000
vn 0.0000000e+0 0.0000000e+0 1.00000000
vn 0.0000000e+0 0.0000000e+0 1.00000000
vn 0.0000000e+0 -1.00000000 0.0000000e+0
vn 0.0000000e+0 -1.00000000 0.0000000e+0
vn 1.00000000 0.0000000e+0 0.0000000e+0
vn 1.00000000 0.0000000e+0 0.0000000e+0
vn 0.0000000e+0 0.0000000e+0 -1.00000000
vn 0.0000000e+0 0.0000000e+0 -1.00000000
vn 0.0000000e+0 -1.00000000 0.0000000e+0
vn 1.00000000 0.0000000e+0 0.0000000e+0
vn 1.00000000 0.0000000e+0 0.0000000e+0
vn 0.0000000e+0 0.0000000e+0 1.00000000
vn 0.0000000e+0 1.00000000 0.0000000e+0
vn 0.0000000e+0 1.00000000 0.0000000e+0
vn 1.00000000 0.0000000e+0 0.0000000e+0
vn 0.0000000e+0 0.0000000e+0 -1.00000000
vn 0.0000000e+0 1.00000000 0.0000000e+0
vn 0.0000000e+0 1.00000000 0.0000000e+0
g unnamed_object4_palette4
usemtl palette4
s 1
f 14/2/69 25/2/129 13/2/65
f 14/2/70 26/2/135 25/2/130
f 17/2/83 19/2/94 18/2/89
f 19/2/95 20/2/99 18/2/90
f 22/2/110 23/2/115 21/2/105
f 22/2/111 24/2/119 23/2/116
s 2
f 13/2/61 15/2/71 14/2/66
f 15/2/72 16/2/77 14/2/67
f 17/2/87 22/2/113 21/2/109
f 18/2/93 22/2/114 17/2/88
f 26/2/131 27/2/136 25/2/125
f 26/2/132 28/2/141 27/2/137
s 3
f 13/2/62 21/2/106 15/2/73
f 13/2/64 25/2/126 17/2/85
f 16/2/78 26/2/133 14/2/68
f 16/2/79 28/2/142 26/2/134
f 17/2/84 21/2/108 13/2/63
f 17/2/86 25/2/127 19/2/96
f 18/2/91 24/2/120 22/2/112
f 20/2/100 24/2/121 18/2/92
f 21/2/107 23/2/117 15/2/74
f 25/2/128 27/2/138 19/2/97
s 4
f 15/2/76 24/2/123 16/2/80
f 16/2/81 24/2/124 20/2/102
f 19/2/98 27/2/139 20/2/101
f 20/2/104 28/2/144 16/2/82
f 23/2/118 24/2/122 15/2/75
f 27/2/140 28/2/143 20/2/103
o unnamed_object3
#16 vertices, 28 faces
v -2.50000000 -2.2204460e-16 2.50000000
v -2.50000000 -2.2204460e-16 -2.50000000
v -2.50000000 5.00000000 2.50000000
v -2.50000000 5.00000000 -2.50000000
v 2.40000000 0.10000000 2.50000000
v 2.40000000 0.10000000 -2.50000000
v 2.40000000 5.00000000 2.50000000
v 2.40000000 5.00000000 -2.50000000
v -2.40000000 0.10000000 2.50000000
v -2.40000000 0.10000000 -2.50000000
v -2.40000000 5.00000000 2.50000000
v -2.40000000 5.00000000 -2.50000000
v 2.50000000 -2.2204460e-16 2.50000000
v 2.50000000 -2.2204460e-16 -2.50000000
v 2.50000000 5.00000000 2.50000000
v 2.50000000 5.00000000 -2.50000000
vt 0.30664100 0.50000000
vn -1.00000000 0.0000000e+0 0.0000000e+0
vn 0.0000000e+0 0.0000000e+0 1.00000000
vn 0.0000000e+0 0.0000000e+0 1.00000000
vn 0.0000000e+0 0.0000000e+0 1.00000000
vn 0.0000000e+0 -1.00000000 0.0000000e+0
vn -1.00000000 0.0000000e+0 0.0000000e+0
vn -1.00000000 0.0000000e+0 0.0000000e+0
vn 0.0000000e+0 0.0000000e+0 -1.00000000
vn 0.0000000e+0 0.0000000e+0 -1.00000000
vn 0.0000000e+0 0.0000000e+0 -1.00000000
vn 0.0000000e+0 -1.00000000 0.0000000e+0
vn 0.0000000e+0 -1.00000000 0.0000000e+0
vn -1.00000000 0.0000000e+0 0.0000000e+0
vn -1.00000000 0.0000000e+0 0.0000000e+0
vn 0.0000000e+0 0.0000000e+0 1.00000000
vn 0.0000000e+0 0.0000000e+0 1.00000000
vn 0.0000000e+0 1.00000000 0.0000000e+0
vn -1.00000000 0.0000000e+0 0.0000000e+0
vn 0.0000000e+0 0.0000000e+0 -1.00000000
vn 0.0000000e+0 0.0000000e+0 -1.00000000
vn 0.0000000e+0 1.00000000 0.0000000e+0
vn 0.0000000e+0 1.00000000 0.0000000e+0
vn -1.00000000 0.0000000e+0 0.0000000e+0
vn 0.0000000e+0 0.0000000e+0 1.00000000
vn 0.0000000e+0 0.0000000e+0 1.00000000
vn 0.0000000e+0 0.0000000e+0 1.00000000
vn 0.0000000e+0 1.00000000 0.0000000e+0
vn 0.0000000e+0 1.00000000 0.0000000e+0
vn -1.00000000 0.0000000e+0 0.0000000e+0
vn -1.00000000 0.0000000e+0 0.0000000e+0
vn 0.0000000e+0 0.0000000e+0 -1.00000000
vn 0.0000000e+0 0.0000000e+0 -1.00000000
vn 0.0000000e+0 0.0000000e+0 -1.00000000
vn 0.0000000e+0 1.00000000 0.0000000e+0
vn -1.00000000 0.0000000e+0 0.0000000e+0
vn -1.00000000 0.0000000e+0 0.0000000e+0
vn 0.0000000e+0 0.0000000e+0 1.00000000
vn 0.0000000e+0 0.0000000e+0 1.00000000
vn 0.0000000e+0 1.00000000 0.0000000e+0
vn -1.00000000 0.0000000e+0 0.0000000e+0
vn 0.0000000e+0 0.0000000e+0 -1.00000000
vn 0.0000000e+0 0.0000000e+0 -1.00000000
vn 0.0000000e+0 1.00000000 0.0000000e+0
vn 0.0000000e+0 1.00000000 0.0000000e+0
vn 1.00000000 0.0000000e+0 0.0000000e+0
vn 0.0000000e+0 0.0000000e+0 1.00000000
vn 0.0000000e+0 0.0000000e+0 1.00000000
vn 0.0000000e+0 0.0000000e+0 1.00000000
vn 0.0000000e+0 1.00000000 0.0000000e+0
vn 1.00000000 0.0000000e+0 0.0000000e+0
vn 1.00000000 0.0000000e+0 0.0000000e+0
vn 0.0000000e+0 0.0000000e+0 -1.00000000
vn 0.0000000e+0 0.0000000e+0 -1.00000000
vn 0.0000000e+0 0.0000000e+0 -1.00000000
vn 0.0000000e+0 1.00000000 0.0000000e+0
vn 0.0000000e+0 1.00000000 0.0000000e+0
vn 1.00000000 0.0000000e+0 0.0000000e+0
vn 1.00000000 0.0000000e+0 0.0000000e+0
vn 0.0000000e+0 0.0000000e+0 1.00000000
vn 0.0000000e+0 1.00000000 0.0000000e+0
vn 0.0000000e+0 1.00000000 0.0000000e+0
vn 1.00000000 0.0000000e+0 0.0000000e+0
vn 0.0000000e+0 0.0000000e+0 -1.00000000
vn 0.0000000e+0 1.00000000 0.0000000e+0
vn 1.00000000 0.0000000e+0 0.0000000e+0
vn 0.0000000e+0 0.0000000e+0 1.00000000
vn 0.0000000e+0 0.0000000e+0 1.00000000
vn 0.0000000e+0 0.0000000e+0 1.00000000
vn 0.0000000e+0 -1.00000000 0.0000000e+0
vn 0.0000000e+0 -1.00000000 0.0000000e+0
vn 1.00000000 0.0000000e+0 0.0000000e+0
vn 1.00000000 0.0000000e+0 0.0000000e+0
vn 0.0000000e+0 0.0000000e+0 -1.00000000
vn 0.0000000e+0 0.0000000e+0 -1.00000000
vn 0.0000000e+0 0.0000000e+0 -1.00000000
vn 0.0000000e+0 -1.00000000 0.0000000e+0
vn 1.00000000 0.0000000e+0 0.0000000e+0
vn 1.00000000 0.0000000e+0 0.0000000e+0
vn 0.0000000e+0 0.0000000e+0 1.00000000
vn 0.0000000e+0 1.00000000 0.0000000e+0
vn 0.0000000e+0 1.00000000 0.0000000e+0
vn 1.00000000 0.0000000e+0 0.0000000e+0
vn 0.0000000e+0 0.0000000e+0 -1.00000000
vn 0.0000000e+0 1.00000000 0.0000000e+0
g unnamed_object3_palette3
usemtl palette3
s 1
f 29/3/145 31/3/157 30/3/150
f 31/3/158 32/3/162 30/3/151
f 33/3/167 35/3/179 34/3/173
f 35/3/180 36/3/184 34/3/174
f 38/3/194 39/3/201 37/3/189
f 38/3/195 40/3/206 39/3/202
f 42/3/215 43/3/221 41/3/209
f 42/3/216 44/3/226 43/3/222
s 2
f 30/3/155 41/3/213 29/3/149
f 30/3/156 42/3/220 41/3/214
f 31/3/161 39/3/204 32/3/165
f 33/3/171 38/3/199 37/3/193
f 34/3/178 38/3/200 33/3/172
f 35/3/183 43/3/224 36/3/187
f 39/3/205 40/3/208 32/3/166
f 43/3/225 44/3/228 36/3/188
s 3
f 29/3/146 37/3/190 31/3/159
f 29/3/148 41/3/210 33/3/169
f 30/3/153 38/3/198 34/3/175
f 32/3/163 38/3/196 30/3/152
f 32/3/164 40/3/207 38/3/197
f 33/3/168 37/3/192 29/3/147
f 33/3/170 41/3/211 35/3/181
f 34/3/176 42/3/217 30/3/154
f 36/3/185 42/3/218 34/3/177
f 36/3/186 44/3/227 42/3/219
f 37/3/191 39/3/203 31/3/160
f 41/3/212 43/3/223 35/3/182
o unnamed_object2
#8 vertices, 12 faces
v -2.50000000 -2.2204460e-16 2.50000000
v -2.50000000 -2.2204460e-16 -2.50000000
v -2.50000000 0.10000000 2.50000000
v -2.50000000 0.10000000 -2.50000000
v 2.50000000 -2.2204460e-16 2.50000000
v 2.50000000 -2.2204460e-16 -2.50000000
v 2.50000000 0.10000000 2.50000000
v 2.50000000 0.10000000 -2.50000000
vt 0.30664100 0.50000000
vn -1.00000000 0.0000000e+0 0.0000000e+0
vn 0.0000000e+0 0.0000000e+0 1.00000000
vn 0.0000000e+0 -1.00000000 0.0000000e+0
vn -1.00000000 0.0000000e+0 0.0000000e+0
vn -1.00000000 0.0000000e+0 0.0000000e+0
vn 0.0000000e+0 0.0000000e+0 -1.00000000
vn 0.0000000e+0 -1.00000000 0.0000000e+0
vn 0.0000000e+0 -1.00000000 0.0000000e+0
vn -1.00000000 0.0000000e+0 0.0000000e+0
vn -1.00000000 0.0000000e+0 0.0000000e+0
vn 0.0000000e+0 0.0000000e+0 1.00000000
vn 0.0000000e+0 0.0000000e+0 1.00000000
vn 0.0000000e+0 1.00000000 0.0000000e+0
vn -1.00000000 0.0000000e+0 0.0000000e+0
vn 0.0000000e+0 0.0000000e+0 -1.00000000
vn 0.0000000e+0 0.0000000e+0 -1.00000000
vn 0.0000000e+0 1.00000000 0.0000000e+0
vn 0.0000000e+0 1.00000000 0.0000000e+0
vn 1.00000000 0.0000000e+0 0.0000000e+0
vn 0.0000000e+0 0.0000000e+0 1.00000000
vn 0.0000000e+0 0.0000000e+0 1.00000000
vn 0.0000000e+0 -1.00000000 0.0000000e+0
vn 0.0000000e+0 -1.00000000 0.0000000e+0
vn 1.00000000 0.0000000e+0 0.0000000e+0
vn 1.00000000 0.0000000e+0 0.0000000e+0
vn 0.0000000e+0 0.0000000e+0 -1.00000000
vn 0.0000000e+0 0.0000000e+0 -1.00000000
vn 0.0000000e+0 -1.00000000 0.0000000e+0
vn 1.00000000 0.0000000e+0 0.0000000e+0
vn 1.00000000 0.0000000e+0 0.0000000e+0
vn 0.0000000e+0 0.0000000e+0 1.00000000
vn 0.0000000e+0 1.00000000 0.0000000e+0
vn 0.0000000e+0 1.00000000 0.0000000e+0
vn 1.00000000 0.0000000e+0 0.0000000e+0
vn 0.0000000e+0 0.0000000e+0 -1.00000000
vn 0.0000000e+0 1.00000000 0.0000000e+0
g unnamed_object2_palette2
usemtl palette2
s 1
f 45/4/230 49/4/248 47/4/239
f 48/4/243 50/4/254 46/4/234
f 48/4/244 52/4/263 50/4/255
f 49/4/249 51/4/259 47/4/240
s 2
f 45/4/229 47/4/237 46/4/232
f 47/4/238 48/4/242 46/4/233
f 50/4/252 51/4/257 49/4/247
f 50/4/253 52/4/262 51/4/258
s 3
f 46/4/235 49/4/250 45/4/231
f 46/4/236 50/4/256 49/4/251
f 47/4/241 51/4/260 48/4/245
f 51/4/261 52/4/264 48/4/246
o unnamed_object1
#14 vertices, 24 faces
v -2.50000000 -2.2204460e-16 2.50000000
v -2.50000000 -2.2204460e-16 -2.50000000
v -2.50000000 5.00000000 2.50000000
v -2.50000000 5.00000000 -2.50000000
v -2.40000000 0.10000000 2.50000000
v -2.40000000 0.10000000 -2.40000000
v -2.40000000 5.00000000 2.50000000
v -2.40000000 5.00000000 -2.40000000
v 2.50000000 -2.2204460e-16 2.50000000
v 2.50000000 -2.2204460e-16 -2.50000000
v 2.50000000 0.10000000 2.50000000
v 2.50000000 0.10000000 -2.40000000
v 2.50000000 5.00000000 -2.40000000
v 2.50000000 5.00000000 -2.50000000
vt 0.30664100 0.50000000
vn -1.00000000 0.0000000e+0 0.0000000e+0
vn 0.0000000e+0 0.0000000e+0 1.00000000
vn 0.0000000e+0 0.0000000e+0 1.00000000
vn 0.0000000e+0 -1.00000000 0.0000000e+0
vn -1.00000000 0.0000000e+0 0.0000000e+0
vn -1.00000000 0.0000000e+0 0.0000000e+0
vn 0.0000000e+0 0.0000000e+0 -1.00000000
vn 0.0000000e+0 -1.00000000 0.0000000e+0
vn 0.0000000e+0 -1.00000000 0.0000000e+0
vn -1.00000000 0.0000000e+0 0.0000000e+0
vn -1.00000000 0.0000000e+0 0.0000000e+0
vn 0.0000000e+0 0.0000000e+0 1.00000000
vn 0.0000000e+0 0.0000000e+0 1.00000000
vn 0.0000000e+0 1.00000000 0.0000000e+0
vn 0.0000000e+0 1.00000000 0.0000000e+0
vn -1.00000000 0.0000000e+0 0.0000000e+0
vn 0.0000000e+0 0.0000000e+0 -1.00000000
vn 0.0000000e+0 0.0000000e+0 -1.00000000
vn 0.0000000e+0 1.00000000 -6.0420301e-16
vn 0.0000000e+0 1.00000000 -6.0420301e-16
vn 0.0000000e+0 1.00000000 -6.0420301e-16
vn 1.00000000 0.0000000e+0 0.0000000e+0
vn 0.0000000e+0 0.0000000e+0 1.00000000
vn 0.0000000e+0 0.0000000e+0 1.00000000
vn 0.0000000e+0 0.0000000e+0 1.00000000
vn 0.0000000e+0 0.0000000e+0 1.00000000
vn 0.0000000e+0 1.00000000 0.0000000e+0
vn 1.00000000 0.0000000e+0 0.0000000e+0
vn 1.00000000 0.0000000e+0 0.0000000e+0
vn 0.0000000e+0 0.0000000e+0 1.00000000
vn 0.0000000e+0 1.00000000 0.0000000e+0
vn 0.0000000e+0 1.00000000 0.0000000e+0
vn 1.00000000 0.0000000e+0 0.0000000e+0
vn 1.00000000 0.0000000e+0 0.0000000e+0
vn 0.0000000e+0 0.0000000e+0 1.00000000
vn 0.0000000e+0 1.00000000 0.0000000e+0
vn 1.00000000 0.0000000e+0 0.0000000e+0
vn 0.0000000e+0 0.0000000e+0 1.00000000
vn 0.0000000e+0 0.0000000e+0 1.00000000
vn 0.0000000e+0 1.00000000 -6.0420301e-16
vn 0.0000000e+0 1.00000000 -6.0420301e-16
vn 0.0000000e+0 1.00000000 -6.0420301e-16
vn 1.00000000 0.0000000e+0 0.0000000e+0
vn 0.0000000e+0 0.0000000e+0 1.00000000
vn 0.0000000e+0 0.0000000e+0 1.00000000
vn 0.0000000e+0 -1.00000000 0.0000000e+0
vn 0.0000000e+0 -1.00000000 0.0000000e+0
vn 1.00000000 0.0000000e+0 0.0000000e+0
vn 1.00000000 0.0000000e+0 0.0000000e+0
vn 1.00000000 0.0000000e+0 0.0000000e+0
vn 1.00000000 0.0000000e+0 0.0000000e+0
vn 0.0000000e+0 0.0000000e+0 -1.00000000
vn 0.0000000e+0 0.0000000e+0 -1.00000000
vn 0.0000000e+0 -1.00000000 0.0000000e+0
vn 1.00000000 0.0000000e+0 0.0000000e+0
vn 1.00000000 0.0000000e+0 0.0000000e+0
vn 0.0000000e+0 0.0000000e+0 1.00000000
vn 0.0000000e+0 1.00000000 0.0000000e+0
vn 0.0000000e+0 1.00000000 0.0000000e+0
vn 1.00000000 0.0000000e+0 0.0000000e+0
vn 1.00000000 0.0000000e+0 0.0000000e+0
vn 0.0000000e+0 0.0000000e+0 1.00000000
vn 0.0000000e+0 0.0000000e+0 1.00000000
vn 0.0000000e+0 1.00000000 0.0000000e+0
vn 1.00000000 0.0000000e+0 0.0000000e+0
vn 1.00000000 0.0000000e+0 0.0000000e+0
vn 0.0000000e+0 0.0000000e+0 1.00000000
vn 0.0000000e+0 1.00000000 -9.0630451e-16
vn 0.0000000e+0 1.00000000 -9.0630451e-16
vn 1.00000000 0.0000000e+0 0.0000000e+0
vn 0.0000000e+0 0.0000000e+0 -1.00000000
vn 0.0000000e+0 1.00000000 0.0000000e+0
g unnamed_object1_palette
usemtl palette
s 1
f 54/5/272 61/5/310 53/5/268
f 54/5/273 62/5/318 61/5/311
f 55/5/279 60/5/305 56/5/283
f 57/5/291 63/5/322 58/5/295
f 59/5/300 60/5/304 55/5/278
f 60/5/306 65/5/332 56/5/284
f 63/5/323 64/5/328 58/5/296
f 65/5/333 66/5/336 56/5/285
s 2
f 53/5/265 55/5/274 54/5/269
f 55/5/275 56/5/280 54/5/270
f 58/5/292 59/5/297 57/5/286
f 58/5/293 60/5/301 59/5/298
f 62/5/312 63/5/319 61/5/307
f 62/5/313 64/5/324 63/5/320
f 62/5/314 65/5/329 64/5/325
f 62/5/315 66/5/334 65/5/330
s 3
f 53/5/266 57/5/287 55/5/276
f 53/5/267 61/5/308 57/5/289
f 56/5/281 62/5/316 54/5/271
f 56/5/282 66/5/335 62/5/317
f 57/5/288 59/5/299 55/5/277
f 58/5/294 64/5/326 60/5/302
f 61/5/309 63/5/321 57/5/290
f 64/5/327 65/5/331 60/5/303
