# Exported from Wings 3D 2.2.5
mtllib TileWall.mtl
o TileWall
#8 vertices, 6 faces
v 4.40000000 -0.20000000 -4.00000000
v 4.40000000 -0.20000000 4.00000000
v 4.00000000 -0.20000000 -4.00000000
v 4.00000000 -0.20000000 4.00000000
v 4.40000000 6.20000000 -4.00000000
v 4.40000000 6.20000000 4.00000000
v 4.00000000 6.20000000 -4.00000000
v 4.00000000 6.20000000 4.00000000
vt 0.0000000e+0 5.5511151e-17
vt 0.0000000e+0 1.00000000
vt 5.5511151e-17 0.55555556
vt 8.5001450e-17 0.55555556
vt 2.7777778e-2 0.0000000e+0
vt 2.7777778e-2 0.55555556
vt 2.7777778e-2 1.3877788e-16
vt 2.7777778e-2 0.44444444
vt 0.55555556 0.55555556
vt 0.55555556 0.55555556
vt 0.55555556 1.00000000
vt 0.55555556 1.00000000
vt 0.58333333 0.55555556
vt 0.58333333 1.00000000
vt 0.58333333 0.0000000e+0
vt 0.58333333 0.44444444
vt 0.58333333 0.55555556
vt 0.58333333 1.00000000
vt 0.58333333 0.55555556
vt 0.61111111 0.0000000e+0
vt 0.61111111 0.55555556
vt 0.61111111 1.00000000
vt 0.61111111 0.55555556
vn 0.57735027 -0.57735027 -0.57735027
vn 0.57735027 -0.57735027 0.57735027
vn -0.57735027 -0.57735027 -0.57735027
vn -0.57735027 -0.57735027 0.57735027
vn 0.57735027 0.57735027 -0.57735027
vn 0.57735027 0.57735027 0.57735027
vn -0.57735027 0.57735027 -0.57735027
vn -0.57735027 0.57735027 0.57735027
g TileWall_TileWall
usemtl TileWall
s 1
f 1/10/1 5/12/5 6/2/6 2/3/2
f 2/1/2 4/5/4 3/6/3 1/4/1
f 2/13/2 6/14/6 8/11/8 4/9/4
f 3/21/3 7/22/7 5/18/5 1/17/1
f 4/15/4 8/16/8 7/8/7 3/7/3
f 5/23/5 7/19/7 8/15/8 6/20/6
o Tile
#8 vertices, 6 faces
v -4.00000000 -0.20000000 -4.00000000
v -4.00000000 -0.20000000 4.00000000
v -4.00000000 0.20000000 -4.00000000
v -4.00000000 0.20000000 4.00000000
v 4.00000000 -0.20000000 -4.00000000
v 4.00000000 -0.20000000 4.00000000
v 4.00000000 0.20000000 -4.00000000
v 4.00000000 0.20000000 4.00000000
vt 0.0000000e+0 2.5000000e-2
vt 0.0000000e+0 2.5000000e-2
vt 0.0000000e+0 5.0000000e-2
vt 0.0000000e+0 0.55000000
vt 5.5511151e-17 0.0000000e+0
vt 1.1102230e-16 5.0000000e-2
vt 0.50000000 5.6551985e-16
vt 0.50000000 0.50000000
vt 0.50000000 0.52500000
vt 0.50000000 0.52500000
vt 0.50000000 0.55000000
vt 0.50000000 0.0000000e+0
vt 0.50000000 2.5000000e-2
vt 0.50000000 2.5000000e-2
vt 0.50000000 5.0000000e-2
vt 0.50000000 5.0000000e-2
vt 0.50000000 0.50000000
vt 0.50000000 0.55000000
vt 1.00000000 0.52500000
vt 1.00000000 0.0000000e+0
vt 1.00000000 0.50000000
vt 1.00000000 0.50000000
vt 1.00000000 0.52500000
vt 1.00000000 0.55000000
vn -0.57735027 -0.57735027 -0.57735027
vn -0.57735027 -0.57735027 0.57735027
vn -0.57735027 0.57735027 -0.57735027
vn -0.57735027 0.57735027 0.57735027
vn 0.57735027 -0.57735027 -0.57735027
vn 0.57735027 -0.57735027 0.57735027
vn 0.57735027 0.57735027 -0.57735027
vn 0.57735027 0.57735027 0.57735027
g Tile_Tile
usemtl Tile
s 1
f 9/44/9 13/40/13 14/35/14 10/43/10
f 10/37/10 12/38/12 11/26/11 9/25/9
f 10/33/10 14/42/14 16/47/16 12/41/12
f 11/36/11 15/24/15 13/28/13 9/30/9
f 12/29/12 16/39/16 15/34/15 11/27/11
f 13/45/13 15/46/15 16/32/16 14/31/14
